<svg xmlns="http://www.w3.org/2000/svg" xmlns:xlink="http://www.w3.org/1999/xlink" width="53" zoomAndPan="magnify" viewBox="0 0 39.75 39.749999" height="53" preserveAspectRatio="xMidYMid meet" version="1.0"><defs><clipPath id="3336afd9a3"><path d="M 27.441406 6.171875 L 31.515625 6.171875 L 31.515625 9.898438 L 27.441406 9.898438 Z M 27.441406 6.171875 " clip-rule="nonzero"/></clipPath><clipPath id="762e32434d"><path d="M 29.304688 6.171875 L 29.644531 6.171875 C 30.140625 6.171875 30.613281 6.367188 30.964844 6.71875 C 31.3125 7.066406 31.507812 7.539062 31.507812 8.035156 C 31.507812 8.527344 31.3125 9.003906 30.964844 9.351562 C 30.613281 9.703125 30.140625 9.898438 29.644531 9.898438 L 29.304688 9.898438 C 28.808594 9.898438 28.335938 9.703125 27.984375 9.351562 C 27.636719 9.003906 27.441406 8.527344 27.441406 8.035156 C 27.441406 7.539062 27.636719 7.066406 27.984375 6.71875 C 28.335938 6.367188 28.808594 6.171875 29.304688 6.171875 Z M 29.304688 6.171875 " clip-rule="nonzero"/></clipPath></defs><g clip-path="url(#3336afd9a3)"><g clip-path="url(#762e32434d)"><path fill="#d1d4fe" d="M 27.441406 6.171875 L 31.515625 6.171875 L 31.515625 9.898438 L 27.441406 9.898438 Z M 27.441406 6.171875 " fill-opacity="1" fill-rule="nonzero"/></g></g><path fill="#a689e0" d="M 32.636719 3.917969 L 6.527344 3.917969 C 5.089844 3.917969 3.917969 5.089844 3.917969 6.527344 L 3.917969 32.636719 C 3.917969 34.070312 5.089844 35.246094 6.527344 35.246094 L 32.636719 35.246094 C 34.070312 35.246094 35.246094 34.070312 35.246094 32.636719 L 35.246094 6.527344 C 35.246094 5.089844 34.070312 3.917969 32.636719 3.917969 Z M 15.757812 6.527344 L 19.582031 10.351562 L 23.40625 6.527344 L 25.253906 8.375 L 21.429688 12.199219 L 25.121094 15.890625 L 23.273438 17.734375 L 13.910156 8.375 Z M 6.527344 23.40625 L 10.351562 19.578125 L 6.527344 15.753906 L 8.375 13.910156 L 12.199219 17.734375 L 15.890625 14.042969 L 17.734375 15.886719 L 8.375 25.25 Z M 23.40625 32.636719 L 19.582031 28.8125 L 15.757812 32.636719 L 13.910156 30.789062 L 17.734375 26.964844 L 14.042969 23.273438 L 15.886719 21.425781 L 25.25 30.789062 Z M 32.636719 23.40625 L 30.789062 25.253906 L 26.964844 21.429688 L 23.273438 25.121094 L 21.425781 23.273438 L 30.789062 13.910156 L 32.636719 15.757812 L 28.8125 19.582031 Z M 32.636719 23.40625 " fill-opacity="1" fill-rule="nonzero"/></svg>